#!OML:ASF E:\Style4\Style4.ASF
:FULLY-SPECIFIED
:DEGREES
3145
root -0.0387986 17.9537 -1.81259 5.62882 5.56326 2.02002
lowerback 11.4504 3.15462 1.10743
upperback 5.47845 4.30353 0.977788
thorax -0.683658 2.15832 -0.114154
lowerneck 4.4593 -17.7378 -5.00113
upperneck 15.8654 -24.4644 5.40084
head 5.44082 -11.9449 1.34764
rclavicle 3.73715e-014 -1.98785e-014
rhumerus 74.337 0.349325 -1496.21
rradius 70.9289
rwrist 1468.88
rhand -45.6506 58.3509
rfingers 7.12502
rthumb -18.4096 29.202
lclavicle 3.73715e-014 -1.98785e-014
lhumerus 72.743 17.7812 36.4749
lradius 123.269
lwrist 39.1292
lhand -13.1538 24.3726
lfingers 7.12502
lthumb 12.945 53.951
rfemur -21.2548 -7.04337 17.6473
rtibia 30.0796
rfoot -13.8752 -19.5227
rtoes -5.53173
lfemur -21.5349 0.0226923 -21.1725
ltibia 27.0145
lfoot -11.3735 9.65088
ltoes -14.7133
3146
root -0.0371093 17.9367 -1.84971 5.7251 5.69594 2.14281
lowerback 11.6726 3.11846 0.905551
upperback 5.62293 4.23864 1.10311
thorax -0.678064 2.1215 0.126896
lowerneck 4.49128 -17.6886 -4.98705
upperneck 16.1015 -24.3864 5.26964
head 5.48792 -11.903 1.30869
rclavicle 1.27222e-014 -1.66979e-014
rhumerus 73.8155 0.782016 -1496.39
rradius 71.7272
rwrist 1468.52
rhand -45.1488 59.2995
rfingers 7.12502
rthumb -17.9268 30.1057
lclavicle 1.27222e-014 -1.66979e-014
lhumerus 72.6152 17.726 36.3888
lradius 123.24
lwrist 39.0402
lhand -13.1857 24.4726
lfingers 7.12502
lthumb 12.9142 54.053
rfemur -21.7811 -7.3693 17.5394
rtibia 30.6219
rfoot -14.014 -19.3374
rtoes -5.53197
lfemur -22.0432 0.00495357 -21.34
ltibia 27.4915
lfoot -11.4173 9.60569
ltoes -14.9838
3147
root -0.0343168 17.9208 -1.88624 5.80799 5.80736 2.19381
lowerback 11.8669 3.09481 0.897475
upperback 5.81274 4.20782 1.1793
thorax -0.591292 2.10599 0.209466
lowerneck 4.30249 -17.6848 -4.92669
upperneck 16.4785 -24.3722 5.10289
head 5.60833 -11.8819 1.22167
rclavicle -9.54166e-015 7.95139e-016
rhumerus 73.435 1.06088 -1496.5
rradius 72.1498
rwrist 1468.35
rhand -45.0701 60.1704
rfingers 7.12502
rthumb -17.8511 30.9697
lclavicle -9.54166e-015 7.95139e-016
lhumerus 72.6156 17.6223 36.3274
lradius 123.176
lwrist 38.92
lhand -13.0348 24.6247
lfingers 7.12502
lthumb 13.0596 54.1959
rfemur -22.3024 -7.61861 17.4972
rtibia 31.1732
rfoot -14.1263 -19.2247
rtoes -5.53492
lfemur -22.5236 0.0477042 -21.435
ltibia 27.9416
lfoot -11.4832 9.45343
ltoes -14.6743
3148
root -0.0331174 17.9033 -1.92505 5.86995 5.90011 2.14214
lowerback 12.1336 3.08407 0.997614
upperback 5.97421 4.20695 1.27857
thorax -0.566555 2.10659 0.246974
lowerneck 4.12476 -17.6846 -4.85299
upperneck 16.8861 -24.3497 4.84196
head 5.72331 -11.8603 1.10808
rclavicle 5.725e-014 1.59028e-014
rhumerus 72.9903 1.32183 -1496.65
rradius 72.4256
rwrist 1468.35
rhand -45.4175 60.5463
rfingers 7.12502
rthumb -18.1854 31.3764
lclavicle 5.725e-014 1.59028e-014
lhumerus 72.5898 17.5928 36.2588
lradius 123.092
lwrist 38.8314
lhand -12.8377 24.7882
lfingers 7.12502
lthumb 13.2496 54.3471
rfemur -22.8284 -7.77072 17.5762
rtibia 31.7341
rfoot -14.2374 -19.1889
rtoes -5.54627
lfemur -23.0187 0.0932361 -21.4
ltibia 28.38
lfoot -11.5178 9.317
ltoes -14.4825
3149
root -0.0309117 17.8867 -1.96539 5.97259 5.94526 2.23751
lowerback 12.4114 3.10265 0.965819
upperback 6.09751 4.23051 1.31877
thorax -0.592352 2.11723 0.291794
lowerneck 4.16775 -17.6784 -4.76801
upperneck 17.1013 -24.3184 4.66602
head 5.75141 -11.8411 1.04832
rclavicle 6.75868e-014 1.43125e-014
rhumerus 72.4408 1.69981 -1497.17
rradius 72.6058
rwrist 1468.53
rhand -45.6574 60.8995
rfingers 7.12502
rthumb -18.4162 31.7513
lclavicle 6.75868e-014 1.43125e-014
lhumerus 72.6562 17.5424 36.2535
lradius 123.017
lwrist 38.9246
lhand -12.6452 24.8885
lfingers 7.12502
lthumb 13.4352 54.4352
rfemur -23.3857 -7.94086 17.4961
rtibia 32.2902
rfoot -14.3764 -19.0617
rtoes -5.49064
lfemur -23.5452 0.133989 -21.5382
ltibia 28.8322
lfoot -11.5334 9.22121
ltoes -14.5118
3150
root -0.028919 17.8695 -2.00649 6.1028 5.99107 2.36119
lowerback 12.6877 3.12551 0.906508
upperback 6.23336 4.25596 1.34173
thorax -0.604559 2.12857 0.334383
lowerneck 4.12555 -17.6763 -4.71958
upperneck 17.3831 -24.3138 4.59845
head 5.83368 -11.8266 1.00756
rclavicle 9.14409e-015 -3.65764e-014
rhumerus 72.1008 1.90114 -1497.26
rradius 72.3028
rwrist 1468.45
rhand -46.2993 61.5257
rfingers 7.12502
rthumb -19.0336 32.437
lclavicle 9.14409e-015 -3.65764e-014
lhumerus 72.7381 17.4271 36.2219
lradius 122.977
lwrist 38.9856
lhand -12.6546 24.8498
lfingers 7.12502
lthumb 13.4261 54.3971
rfemur -23.9898 -8.11584 17.3906
rtibia 32.8657
rfoot -14.4511 -18.97
rtoes -5.62401
lfemur -24.0913 0.196969 -21.7187
ltibia 29.2844
lfoot -11.5299 9.14048
ltoes -14.9472
3151
root -0.0282513 17.8506 -2.04852 6.22279 6.04456 2.39753
lowerback 12.9741 3.1187 0.908516
upperback 6.37638 4.24959 1.39629
thorax -0.612174 2.1248 0.379349
lowerneck 3.84145 -17.6113 -4.60357
upperneck 17.8847 -24.2106 4.35062
head 5.98841 -11.7578 0.883496
rclavicle 5.20816e-014 -1.03368e-014
rhumerus 71.6303 2.24972 -1497.72
rradius 72.0024
rwrist 1468.55
rhand -46.8076 61.9332
rfingers 7.12502
rthumb -19.5223 32.8933
lclavicle 5.20816e-014 -1.03368e-014
lhumerus 72.6518 17.3495 36.105
lradius 122.925
lwrist 38.965
lhand -12.6208 24.6917
lfingers 7.12502
lthumb 13.4587 54.2369
rfemur -24.6118 -8.23744 17.3815
rtibia 33.4658
rfoot -14.5131 -18.9409
rtoes -5.58604
lfemur -24.6385 0.282136 -21.7986
ltibia 29.7373
lfoot -11.5369 9.02317
ltoes -15.0764
3152
root -0.0295063 17.8315 -2.08824 6.34105 6.1222 2.48221
lowerback 13.2179 3.14101 0.854434
upperback 6.54317 4.27457 1.46245
thorax -0.576725 2.13564 0.46683
lowerneck 3.6129 -17.54 -4.4089
upperneck 18.225 -24.0798 4.06138
head 6.0673 -11.6804 0.755589
rclavicle 4.13472e-014 4.77083e-015
rhumerus 71.2043 2.52087 -1498.16
rradius 71.5158
rwrist 1468.57
rhand -47.0053 62.2357
rfingers 7.12502
rthumb -19.7124 33.2152
lclavicle 4.13472e-014 4.77083e-015
lhumerus 72.6592 17.2394 36.0987
lradius 122.908
lwrist 38.981
lhand -12.5119 24.6458
lfingers 7.12502
lthumb 13.5637 54.184
rfemur -25.2192 -8.3735 17.3253
rtibia 34.0856
rfoot -14.6368 -18.9328
rtoes -5.59167
lfemur -25.1823 0.359425 -21.9222
ltibia 30.2019
lfoot -11.5231 8.85396
ltoes -15.1383
